<?xml version="1.0" encoding="UTF-8"?>
<svg id="Layer_1" xmlns="http://www.w3.org/2000/svg" viewBox="0 0 681.31 595.28">
  <defs>
    <style>
      .cls-1 {
        fill: #fff;
      }

      .cls-2 {
        fill: none;
        stroke: #c6612a;
        stroke-linecap: round;
        stroke-linejoin: round;
        stroke-width: 2.47px;
      }

      .cls-3 {
        fill: #c6612a;
      }

      .cls-4 {
        fill: #fbb042;
      }
    </style>
  </defs>
  <path class="cls-4" d="M247.69,330.48c-2.15,28.4,10.54,60.89,1.6,87.95-3.66,11.06-10.91,20.5-18.04,29.71-19.99,25.82-39.98,51.64-59.97,77.46-21.15,27.33-49.82,57.72-83.76,51.25-18.46-3.52-33.4-18.05-41.62-34.95-19.67-40.45-22.42-125.88-13.99-171.32,14.37-77.41,70.66-84.65,133.69-54.71,35.18,16.71,60.74,52.2,65.43,90.87"/>
  <path class="cls-1" d="M97.17,595.28c-4.21,0-8.52-.39-12.94-1.24-22.39-4.27-42.61-20.9-54.08-44.49-22.95-47.22-23.7-137.68-15.45-182.17,6.98-37.63,23.45-63.3,48.95-76.32,28.55-14.56,66.38-11.45,109.44,8.99,23.99,11.4,44.17,30.53,57.72,53.5-.79-8.07-1.2-16.24-.58-24.4.73-9.64,9.14-16.93,18.77-16.12,9.64.73,16.85,9.13,16.12,18.77-.74,9.75.68,20.77,2.19,32.43,2.53,19.59,5.14,39.84-1.42,59.69-4.64,14.02-13.24,25.13-20.82,34.94l-59.97,77.46c-21.71,28.04-50.8,58.96-87.94,58.96ZM103.58,317.07c-9.16,0-17.25,1.71-24.01,5.16-15.31,7.81-25.56,25.16-30.46,51.54-8.2,44.17-4.44,125.6,12.52,160.48,6.56,13.5,17.74,23.24,29.17,25.41,19.24,3.73,39.83-10.11,66.65-44.76l59.97-77.46c3.45-4.46,6.97-9,9.88-13.61-7.06-1.54-12.71-7.4-13.63-14.99-3.97-32.73-25.78-63.02-55.57-77.17-20.38-9.68-38.98-14.6-54.51-14.6Z"/>
  <path class="cls-4" d="M241.19,456.9c32.26-4.11,56.75-22.89,61.56-66.23,2.4-21.65-6.43-43.4-19.91-60.52-13.48-17.12-31.29-30.25-49.3-42.51-37.47-25.53-76.82-48.3-117.61-68.09-9.37-4.55-19.53-9.05-29.82-7.47-12.72,1.95-22.12,12.54-30.12,22.62-20.94,26.38-41.26,57.27-38.18,90.81,2.19,23.85,16.29,45.32,34.14,61.29,33.98,30.4,126.38,78.12,189.24,70.11Z"/>
  <path class="cls-1" d="M226.74,475.26c-68.01,0-153.95-46.37-186.45-75.45C16.94,378.93,2.77,353.11.39,327.09c-3.66-39.89,19.13-74.6,41.91-103.28,7.18-9.04,20.54-25.88,41.17-29.04,16.33-2.47,31.23,4.72,40.11,9.03,41.42,20.09,81.74,43.43,119.82,69.37,17.59,11.98,37.67,26.42,53.2,46.16,17.91,22.75,26.27,48.77,23.54,73.27-5.22,47.03-32.46,76.03-76.73,81.66h0c-5.4.69-10.97,1.01-16.66,1.01ZM90.39,229.24c-.56,0-1.11.04-1.63.12-6.2.94-12.82,8.35-19.06,16.2-18.46,23.26-37,50.75-34.47,78.33,1.58,17.18,11.66,34.88,28.39,49.86,34.33,30.71,121.79,72.52,175.37,65.8h0c28.19-3.59,42.93-19.73,46.38-50.81,1.67-15.09-4.25-32.5-16.27-47.77-12.46-15.83-29.96-28.37-45.4-38.88-36.68-24.99-75.51-47.46-115.4-66.81-6.35-3.08-12.9-6.04-17.91-6.04Z"/>
  <path class="cls-4" d="M370.47,253.86c26.46,10.55,50.06,36.22,78.31,40.08,11.54,1.58,23.21-.79,34.62-3.15,31.98-6.61,63.95-13.22,95.93-19.83,33.84-6.99,73.74-19.39,82.84-52.72,4.95-18.13-1.54-37.94-13.11-52.75-27.69-35.44-103.22-75.45-147.75-87.85-75.85-21.11-107.09,26.27-107.89,96.05-.45,38.95,20.2,77.5,52.87,98.71"/>
  <path class="cls-1" d="M456.63,311.95c-3.35,0-6.77-.2-10.23-.67-20.72-2.83-37.77-14.08-54.25-24.96-9.81-6.48-19.08-12.59-28.16-16.21-8.98-3.58-13.35-13.76-9.77-22.74,3.58-8.98,13.77-13.33,22.74-9.77,7.6,3.04,14.76,6.99,21.66,11.25-14.68-22.26-23-48.8-22.69-75.36.55-47.67,14.39-83.03,40.01-102.26,22.9-17.19,53.19-20.71,90.07-10.44,43.59,12.14,124.52,52.57,156.84,93.94,16.15,20.66,22.2,46.13,16.2,68.12-11.63,42.62-57.51,57.25-96.18,65.24l-95.93,19.83c-9.27,1.92-19.48,4.03-30.31,4.03ZM467.76,90.08c-12.4,0-22.71,3.05-30.82,9.14-16.37,12.29-25.62,38.81-26.03,74.68-.38,32.98,17.25,65.88,44.9,83.83,6.41,4.16,9.19,11.81,7.47,18.83,5.41-.59,11.04-1.75,16.56-2.89l95.93-19.83c42.9-8.87,64.33-21.27,69.5-40.2,3.06-11.23-.77-25.54-10.01-37.36-23.87-30.57-95.37-69.73-138.65-81.77-10.6-2.96-20.23-4.43-28.86-4.43Z"/>
  <path class="cls-4" d="M486.88,303.58c-17.87,27.18-45.5,40.92-86.55,26.19-20.51-7.36-36.16-24.85-45.62-44.48-9.46-19.63-13.42-41.4-16.53-62.96-6.46-44.88-9.64-90.23-9.48-135.57.03-10.41.45-21.51,6.39-30.07,7.34-10.57,20.98-14.36,33.55-17.12,32.9-7.22,69.57-11.9,98.35,5.61,20.46,12.44,33.55,34.55,40.05,57.6,12.38,43.88,14.64,147.85-20.18,200.8Z"/>
  <path class="cls-1" d="M431.54,353.19c-11.7,0-24.13-2.3-37.12-6.95-23.21-8.33-42.91-27.28-55.47-53.36-10.9-22.61-15.05-46.99-18.08-68.06-6.56-45.58-9.81-92.05-9.67-138.12.04-9.89.1-26.43,9.52-39.99,11.91-17.15,32.9-21.76,44.18-24.23,35.78-7.84,76.97-13.06,111.18,7.74,22.33,13.58,39.3,37.66,47.81,67.8,12.83,45.48,16.31,156.28-22.4,215.16h0c-17.37,26.41-41.51,40-69.96,40ZM418.32,50.61c-15.14,0-31.04,2.79-45.92,6.05-9.8,2.15-19.35,4.84-22.93,10-2.96,4.27-3.24,12.3-3.27,20.16-.14,44.36,2.99,89.11,9.31,133.01,2.66,18.49,6.23,39.73,14.97,57.86,8.43,17.5,21.46,30.48,35.77,35.61,29.42,10.54,50.4,4.41,66.01-19.34h0c29.68-45.14,30.46-142.11,17.96-186.44-6.09-21.6-17.56-38.44-32.3-47.4-11.52-7.01-25.22-9.52-39.59-9.52Z"/>
  <path class="cls-4" d="M292,378.79c36.66,18.33,77.45,2.34,99.14-32.55,8.29-13.34,11.29-29.22,13.49-44.77,10.71-75.71,6.16-153.55-13.3-227.49-42.64-162.02-479.5,61.48-272.96,206.82,29.08,20.47,57.49,39.92,173.63,97.99Z"/>
  <path class="cls-1" d="M323.78,403.88c-13.36,0-26.84-3.06-39.6-9.44h0c-119.99-60-148.4-80-175.88-99.33-72.27-50.85-66.53-107.85-56.67-137.29C81.26,69.29,217.67-3.03,309.24.1c52.52,1.72,87.68,26.38,99.01,69.43,19.94,75.77,24.68,156.82,13.7,234.39-2.3,16.23-5.61,34.93-15.95,51.56-19.32,31.08-50.44,48.4-82.22,48.4ZM299.82,363.14c27.02,13.52,58.49,2.78,76.46-26.14,6.75-10.85,9.23-25.29,11.02-37.98,10.33-73,5.87-149.28-12.89-220.59-7.26-27.56-29.57-42.16-66.32-43.36-77.7-2.39-198.53,59.96-223.28,133.85-12.02,35.91,2.66,68.74,43.63,97.57,26.42,18.59,53.73,37.82,171.39,96.64h0Z"/>
  <path class="cls-3" d="M198.97,282.84c-2.31,0-4.65-.69-6.69-2.12-4.53-3.18-9.33-6.38-14.25-9.65-33.97-22.6-76.26-50.74-69.78-102.21.8-6.4,6.67-10.98,13.03-10.11,6.39.8,10.92,6.64,10.11,13.03-4.68,37.14,27.98,58.87,59.56,79.88,5.08,3.38,10.05,6.69,14.73,9.98,5.27,3.7,6.54,10.97,2.84,16.25-2.27,3.24-5.88,4.96-9.56,4.96Z"/>
  <path class="cls-3" d="M260.82,323.57c-2.18,0-4.39-.61-6.35-1.88l-12.57-8.18c-5.4-3.51-6.93-10.74-3.41-16.14,3.51-5.4,10.72-6.94,16.13-3.41l12.57,8.18c5.4,3.51,6.93,10.74,3.41,16.13-2.23,3.44-5.97,5.3-9.78,5.3Z"/>
  <path class="cls-3" d="M310.69,355.32c-1.67,0-3.36-.35-4.97-1.12l-12.86-6.07c-5.83-2.75-8.32-9.7-5.57-15.53,2.75-5.82,9.73-8.3,15.53-5.57l12.85,6.07c5.83,2.75,8.33,9.69,5.58,15.52-1.99,4.22-6.18,6.69-10.55,6.69Z"/>
  <path class="cls-3" d="M133.57,391.35c-1.47,0-2.97-.28-4.42-.88-30.14-12.36-56.37-34.3-73.85-61.79-3.46-5.43-1.86-12.64,3.58-16.1,5.42-3.46,12.65-1.85,16.1,3.58,14.92,23.45,37.3,42.17,63.02,52.72,5.96,2.44,8.81,9.26,6.37,15.22-1.85,4.51-6.2,7.24-10.8,7.24Z"/>
  <path class="cls-3" d="M103.23,528.38c-.13,0-.27,0-.4,0-16.66-.57-32.96-8.56-43.6-21.38-4.11-4.96-3.43-12.31,1.53-16.43,4.97-4.1,12.31-3.42,16.43,1.53,6.45,7.77,16.33,12.62,26.44,12.96,6.43.22,11.48,5.62,11.26,12.06-.22,6.3-5.39,11.26-11.65,11.26Z"/>
  <path class="cls-2" d="M35,447.82s-15.93,233.15,141.72,75.5c157.66-157.66-159.92,7.85-159.92-131.97s96.85-130.32,135.34-91.84c38.48,38.48,59.98,104.37,200.82,104.37s-97.24-56.33-97.24-97.24S-27.46,47.23,145.25,47.23s207.15,62.67,207.15,207.15,99.67,53.49,99.67,0-23.28-225.71-66.71-225.71,50.15,104.17,104.17,104.17-5.56,89.99,25.8,121.35c31.36,31.36,112.26-66.42,112.26-112.26"/>
</svg>