<svg width="1080" height="1080" viewBox="0 0 1080 1080" fill="none" xmlns="http://www.w3.org/2000/svg">
<rect x="703.148" y="747.228" width="31" height="205.384" rx="15.5" transform="rotate(135 703.148 747.228)" fill="#3A3335"/>
<rect x="755.148" y="685.228" width="31" height="205.384" rx="15.5" transform="rotate(135 755.148 685.228)" fill="#3A3335"/>
<rect x="476.106" y="593.511" width="31" height="336.238" rx="15.5" transform="rotate(-133.574 476.106 593.511)" fill="#EB5E55"/>
<rect x="476.368" y="698.224" width="31" height="382.781" rx="15.5" transform="rotate(-133.574 476.368 698.224)" fill="#EB5E55"/>
<rect x="752.248" y="441.02" width="29.8925" height="107.605" rx="14.9462" transform="rotate(154.927 752.248 441.02)" fill="#EB5E55"/>
<rect x="378" y="364" width="31" height="399" rx="15.5" fill="#D81E5B"/>
<rect x="455" y="364" width="31" height="399" rx="15.5" fill="#D81E5B"/>
<rect x="485.604" y="732" width="31" height="107.605" rx="15.5" transform="rotate(90 485.604 732)" fill="#D81E5B"/>
</svg>
